<svg width="1313" height="646" viewBox="0 0 1313 646" fill="none" xmlns="http://www.w3.org/2000/svg">
<path d="M1142.51 591.627L1304.48 8.51123L873.015 185.89L697.776 196.365L637.036 150.973L589.56 219.411H11.4805L403.151 640.511L1142.51 591.627Z" fill="#D9D9D9"/>
<path d="M1304.48 8.51123L1142.51 591.627L403.151 640.511L11.4805 219.411M1304.48 8.51123L873.015 185.89L697.776 196.365L637.036 150.973M1304.48 8.51123L817.86 286.711M11.4805 219.411H589.56L637.036 150.973M11.4805 219.411L435.964 445.653M637.036 150.973L435.964 445.653M637.036 150.973L817.86 286.711M435.964 445.653L489.723 474.306L817.86 286.711" stroke="black" stroke-width="10"/>
</svg>
